{"accessors":[{"bufferView":0,"byteOffset":0,"componentType":5126,"count":4,"max":[0.0,0.01,0.0],"min":[0.0,0.0,-0.05],"type":"VEC3"},{"bufferView":0,"byteOffset":48,"componentType":5126,"count":4,"max":[0.05,0.01,0.0],"min":[0.05,0.0,-0.05],"type":"VEC3"},{"bufferView":0,"byteOffset":96,"componentType":5126,"count":4,"max":[0.05,0.01,0.0],"min":[0.0,0.0,0.0],"type":"VEC3"},{"bufferView":0,"byteOffset":144,"componentType":5126,"count":4,"max":[0.05,0.01,-0.05],"min":[0.0,0.0,-0.05],"type":"VEC3"},{"bufferView":0,"byteOffset":192,"componentType":5126,"count":4,"max":[0.05,0.0,0.0],"min":[0.0,0.0,-0.05],"type":"VEC3"},{"bufferView":0,"byteOffset":240,"componentType":5126,"count":4,"max":[0.05,0.01,0.0],"min":[0.0,0.01,-0.05],"type":"VEC3"},{"bufferView":0,"byteOffset":288,"componentType":5126,"count":228,"max":[0.005,0.005,0.004999516923531907],"min":[-0.00499806778747277,0.0,-0.004999516923531907],"type":"VEC3"},{"bufferView":0,"byteOffset":3024,"componentType":5126,"count":113,"max":[0.005,0.005,0.004999516923531907],"min":[-0.00499806778747277,0.005,-0.004999516923531907],"type":"VEC3"},{"bufferView":0,"byteOffset":4380,"componentType":5126,"count":113,"max":[0.005,0.0,0.004999516923531907],"min":[-0.00499806778747277,0.0,-0.004999516923531907],"type":"VEC3"},{"bufferView":0,"byteOffset":5736,"componentType":5126,"count":228,"max":[0.005,0.005,0.004999516923531905],"min":[-0.00499806778747277,0.0,-0.004999516923531905],"type":"VEC3"},{"bufferView":0,"byteOffset":8472,"componentType":5126,"count":113,"max":[0.005,0.005,0.004999516923531905],"min":[-0.00499806778747277,0.005,-0.004999516923531905],"type":"VEC3"},{"bufferView":0,"byteOffset":9828,"componentType":5126,"count":113,"max":[0.005,0.0,0.004999516923531905],"min":[-0.00499806778747277,0.0,-0.004999516923531905],"type":"VEC3"},{"bufferView":0,"byteOffset":11184,"componentType":5126,"count":4,"max":[0.0,0.005,0.0],"min":[0.0,0.0,-0.02],"type":"VEC3"},{"bufferView":0,"byteOffset":11232,"componentType":5126,"count":4,"max":[0.03,0.005,0.0],"min":[0.03,0.0,-0.02],"type":"VEC3"},{"bufferView":0,"byteOffset":11280,"componentType":5126,"count":4,"max":[0.03,0.005,0.0],"min":[0.0,0.0,0.0],"type":"VEC3"},{"bufferView":0,"byteOffset":11328,"componentType":5126,"count":4,"max":[0.03,0.005,-0.02],"min":[0.0,0.0,-0.02],"type":"VEC3"},{"bufferView":0,"byteOffset":11376,"componentType":5126,"count":4,"max":[0.03,0.0,0.0],"min":[0.0,0.0,-0.02],"type":"VEC3"},{"bufferView":0,"byteOffset":11424,"componentType":5126,"count":4,"max":[0.03,0.005,0.0],"min":[0.0,0.005,-0.02],"type":"VEC3"},{"bufferView":1,"byteOffset":0,"componentType":5126,"count":4,"type":"VEC3"},{"bufferView":1,"byteOffset":48,"componentType":5126,"count":4,"type":"VEC3"},{"bufferView":1,"byteOffset":96,"componentType":5126,"count":4,"type":"VEC3"},{"bufferView":1,"byteOffset":144,"componentType":5126,"count":4,"type":"VEC3"},{"bufferView":1,"byteOffset":192,"componentType":5126,"count":4,"type":"VEC3"},{"bufferView":1,"byteOffset":240,"componentType":5126,"count":4,"type":"VEC3"},{"bufferView":1,"byteOffset":288,"componentType":5126,"count":228,"type":"VEC3"},{"bufferView":1,"byteOffset":3024,"componentType":5126,"count":113,"type":"VEC3"},{"bufferView":1,"byteOffset":4380,"componentType":5126,"count":113,"type":"VEC3"},{"bufferView":1,"byteOffset":5736,"componentType":5126,"count":228,"type":"VEC3"},{"bufferView":1,"byteOffset":8472,"componentType":5126,"count":113,"type":"VEC3"},{"bufferView":1,"byteOffset":9828,"componentType":5126,"count":113,"type":"VEC3"},{"bufferView":1,"byteOffset":11184,"componentType":5126,"count":4,"type":"VEC3"},{"bufferView":1,"byteOffset":11232,"componentType":5126,"count":4,"type":"VEC3"},{"bufferView":1,"byteOffset":11280,"componentType":5126,"count":4,"type":"VEC3"},{"bufferView":1,"byteOffset":11328,"componentType":5126,"count":4,"type":"VEC3"},{"bufferView":1,"byteOffset":11376,"componentType":5126,"count":4,"type":"VEC3"},{"bufferView":1,"byteOffset":11424,"componentType":5126,"count":4,"type":"VEC3"},{"bufferView":2,"byteOffset":0,"componentType":5123,"count":6,"type":"SCALAR"},{"bufferView":2,"byteOffset":12,"componentType":5123,"count":6,"type":"SCALAR"},{"bufferView":2,"byteOffset":24,"componentType":5123,"count":6,"type":"SCALAR"},{"bufferView":2,"byteOffset":36,"componentType":5123,"count":6,"type":"SCALAR"},{"bufferView":2,"byteOffset":48,"componentType":5123,"count":6,"type":"SCALAR"},{"bufferView":2,"byteOffset":60,"componentType":5123,"count":6,"type":"SCALAR"},{"bufferView":2,"byteOffset":72,"componentType":5123,"count":678,"type":"SCALAR"},{"bufferView":2,"byteOffset":1428,"componentType":5123,"count":333,"type":"SCALAR"},{"bufferView":2,"byteOffset":2096,"componentType":5123,"count":333,"type":"SCALAR"},{"bufferView":2,"byteOffset":2764,"componentType":5123,"count":678,"type":"SCALAR"},{"bufferView":2,"byteOffset":4120,"componentType":5123,"count":333,"type":"SCALAR"},{"bufferView":2,"byteOffset":4788,"componentType":5123,"count":333,"type":"SCALAR"},{"bufferView":2,"byteOffset":5456,"componentType":5123,"count":6,"type":"SCALAR"},{"bufferView":2,"byteOffset":5468,"componentType":5123,"count":6,"type":"SCALAR"},{"bufferView":2,"byteOffset":5480,"componentType":5123,"count":6,"type":"SCALAR"},{"bufferView":2,"byteOffset":5492,"componentType":5123,"count":6,"type":"SCALAR"},{"bufferView":2,"byteOffset":5504,"componentType":5123,"count":6,"type":"SCALAR"},{"bufferView":2,"byteOffset":5516,"componentType":5123,"count":6,"type":"SCALAR"}],"asset":{"generator":"Open CASCADE Technology 7.8 [dev.opencascade.org]","version":"2.0"},"bufferViews":[{"buffer":0,"byteLength":11472,"byteOffset":0,"byteStride":12,"target":34962},{"buffer":0,"byteLength":11472,"byteOffset":11472,"byteStride":12,"target":34962},{"buffer":0,"byteLength":5528,"byteOffset":22944,"target":34963}],"buffers":[{"byteLength":28472,"uri":"ThermostatModel.bin"}],"materials":[{"name":"mat_0","pbrMetallicRoughness":{"baseColorFactor":[0.21404114365577698,0.21404114365577698,0.21404114365577698,1.0]},"doubleSided":true},{"name":"mat_1","pbrMetallicRoughness":{"baseColorFactor":[0.0,1.0,0.0,1.0]},"doubleSided":true},{"name":"mat_2","pbrMetallicRoughness":{"baseColorFactor":[1.0,0.0,0.0,1.0]},"doubleSided":true},{"name":"mat_3","pbrMetallicRoughness":{"baseColorFactor":[0.03310476616024971,0.4479883909225464,1.0,1.0]},"doubleSided":true}],"meshes":[{"name":"ThermostatBody","primitives":[{"attributes":{"NORMAL":18,"POSITION":0},"indices":36,"material":0,"mode":4},{"attributes":{"NORMAL":19,"POSITION":1},"indices":37,"material":0,"mode":4},{"attributes":{"NORMAL":20,"POSITION":2},"indices":38,"material":0,"mode":4},{"attributes":{"NORMAL":21,"POSITION":3},"indices":39,"material":0,"mode":4},{"attributes":{"NORMAL":22,"POSITION":4},"indices":40,"material":0,"mode":4},{"attributes":{"NORMAL":23,"POSITION":5},"indices":41,"material":0,"mode":4}]},{"name":"IncreaseButton","primitives":[{"attributes":{"NORMAL":24,"POSITION":6},"indices":42,"material":1,"mode":4},{"attributes":{"NORMAL":25,"POSITION":7},"indices":43,"material":1,"mode":4},{"attributes":{"NORMAL":26,"POSITION":8},"indices":44,"material":1,"mode":4}]},{"name":"DecreaseButton","primitives":[{"attributes":{"NORMAL":27,"POSITION":9},"indices":45,"material":2,"mode":4},{"attributes":{"NORMAL":28,"POSITION":10},"indices":46,"material":2,"mode":4},{"attributes":{"NORMAL":29,"POSITION":11},"indices":47,"material":2,"mode":4}]},{"name":"Screen","primitives":[{"attributes":{"NORMAL":30,"POSITION":12},"indices":48,"material":3,"mode":4},{"attributes":{"NORMAL":31,"POSITION":13},"indices":49,"material":3,"mode":4},{"attributes":{"NORMAL":32,"POSITION":14},"indices":50,"material":3,"mode":4},{"attributes":{"NORMAL":33,"POSITION":15},"indices":51,"material":3,"mode":4},{"attributes":{"NORMAL":34,"POSITION":16},"indices":52,"material":3,"mode":4},{"attributes":{"NORMAL":35,"POSITION":17},"indices":53,"material":3,"mode":4}]}],"nodes":[{"children":[1,2,3,4],"name":"ThermostatModel1"},{"mesh":0,"name":"ThermostatBody"},{"translation":[0.04,0.01,-0.04],"mesh":1,"name":"IncreaseButton"},{"translation":[0.04,0.01,-0.01],"mesh":2,"name":"DecreaseButton"},{"translation":[0.01,0.01,-0.015],"mesh":3,"name":"Screen"}],"scene":0,"scenes":[{"nodes":[0]}]}